<?xml version="1.0" encoding="UTF-8" standalone="no"?>
<svg width="180px" height="84px" viewBox="0 0 180 84" version="1.1" xmlns="http://www.w3.org/2000/svg" xmlns:xlink="http://www.w3.org/1999/xlink">
    <!-- Generator: Sketch 44.1 (41455) - http://www.bohemiancoding.com/sketch -->
    <title>logo/unimed</title>
    <desc>Created with Sketch.</desc>
    <defs></defs>
    <g id="Desk" stroke="none" stroke-width="1" fill="none" fill-rule="evenodd">
        <g id="Resultado-Pesquisa-Guia" transform="translate(-430.000000, -61.000000)">
            <g id="top-internas">
                <g id="logo/unimed" transform="translate(430.000000, 61.000000)">
                    <path d="M13.8384401,82.729805 C6.76880223,82.729805 1.05292479,76.9637883 1.05292479,69.9442897 L1.05292479,13.8384401 C1.05292479,6.76880223 6.8189415,1.05292479 13.8384401,1.05292479 L166.011142,1.05292479 C173.08078,1.05292479 178.796657,6.8189415 178.796657,13.8384401 L178.796657,82.729805 L13.8384401,82.729805 L13.8384401,82.729805 Z" id="Shape" fill="#00995C"></path>
                    <path d="M166.011142,2.10584958 C172.479109,2.10584958 177.743733,7.37047354 177.743733,13.8384401 L177.743733,81.6768802 L13.8384401,81.6768802 C7.37047354,81.6768802 2.10584958,76.4122563 2.10584958,69.9442897 L2.10584958,13.8384401 C2.10584958,7.37047354 7.37047354,2.10584958 13.8384401,2.10584958 L166.011142,2.10584958 L166.011142,2.10584958 L166.011142,2.10584958 Z M166.011142,0 L166.011142,0 L13.8384401,0 C6.21727019,0 0,6.21727019 0,13.8384401 L0,69.9442897 C0,77.5654596 6.21727019,83.7827298 13.8384401,83.7827298 L177.743733,83.7827298 L179.849582,83.7827298 L179.849582,81.6768802 L179.849582,13.8384401 C179.849582,6.21727019 173.632312,0 166.011142,0 L166.011142,0 Z" id="Shape" fill="#FFFFFF"></path>
                    <polygon id="Shape" fill="#FFFFFF" points="144.852368 22.7632312 151.069638 22.7632312 160.395543 35.1977716 154.178273 35.1977716 158.841226 41.4150418 151.069638 41.4150418 146.406685 35.1977716 149.51532 35.1977716 144.852368 28.9805014 149.51532 28.9805014"></polygon>
                    <polygon id="Shape" fill="#FFFFFF" points="144.852368 22.7632312 138.635097 22.7632312 129.309192 35.1977716 135.526462 35.1977716 130.86351 41.4150418 138.635097 41.4150418 143.29805 35.1977716 140.189415 35.1977716 144.852368 28.9805014 140.189415 28.9805014"></polygon>
                    <rect id="Rectangle-path" fill="#FFFFFF" x="124.896936" y="19.454039" width="1.10306407" height="44.8245125"></rect>
                    <path d="M26.1225627,24.0167131 L19.454039,24.0167131 L19.454039,34.5961003 C19.454039,39.7103064 23.264624,41.7158774 28.1281337,41.7158774 C33.3927577,41.7158774 36.8523677,39.8607242 36.8523677,34.2451253 L36.8523677,24.0167131 L30.3342618,24.0167131 L30.3342618,34.3454039 C30.3342618,36.0501393 29.9832869,37.2033426 28.2284123,37.2033426 C26.6239554,37.2033426 26.1727019,35.9498607 26.1727019,34.2952646 L26.1727019,24.0167131 L26.1225627,24.0167131 Z" id="Shape" fill="#FFFFFF"></path>
                    <path d="M38.7075209,41.4150418 L44.9749304,41.4150418 L44.9749304,33.9442897 C44.9749304,33.1922006 44.9749304,32.189415 46.0779944,32.189415 C47.1810585,32.189415 47.1810585,33.1922006 47.1810585,33.9442897 L47.1810585,41.4150418 L53.448468,41.4150418 L53.448468,32.3899721 C53.448468,29.8830084 52.2451253,28.1281337 48.8857939,28.1281337 C47.1309192,28.1281337 45.3760446,28.8300836 44.6740947,30.6852368 L44.6239554,30.6852368 L44.6239554,28.4289694 L38.7075209,28.4289694 L38.7075209,41.4150418 L38.7075209,41.4150418 Z" id="Shape" fill="#FFFFFF"></path>
                    <path d="M55.8551532,41.4150418 L62.1225627,41.4150418 L62.1225627,28.4289694 L55.8551532,28.4289694 L55.8551532,41.4150418 L55.8551532,41.4150418 L55.8551532,41.4150418 Z M62.1225627,22.7130919 L62.1225627,22.7130919 L55.8551532,22.7130919 L55.8551532,27.0752089 L62.1225627,27.0752089 L62.1225627,22.7130919 L62.1225627,22.7130919 Z" id="Shape" fill="#FFFFFF"></path>
                    <path d="M64.178273,41.4150418 L70.4456825,41.4150418 L70.4456825,33.9442897 C70.4456825,33.1922006 70.4456825,32.189415 71.5487465,32.189415 C72.6518106,32.189415 72.6518106,33.1922006 72.6518106,33.9442897 L72.6518106,41.4150418 L78.9192201,41.4150418 L78.9192201,33.9442897 C78.9192201,33.1922006 78.9192201,32.189415 80.0222841,32.189415 C81.1253482,32.189415 81.1253482,33.1922006 81.1253482,33.9442897 L81.1253482,41.4150418 L87.3927577,41.4150418 L87.3927577,33.643454 C87.3927577,31.086351 87.3927577,28.1281337 82.8300836,28.1281337 C81.275766,28.1281337 79.0696379,28.8300836 78.6685237,30.3342618 L78.6183844,30.3342618 C78.1169916,28.7799443 76.3119777,28.1281337 74.5571031,28.1281337 C72.6016713,28.1281337 70.8467967,28.8300836 70.1448468,30.6852368 L70.0947075,30.6852368 L70.0947075,28.4289694 L64.178273,28.4289694 L64.178273,41.4150418 L64.178273,41.4150418 Z" id="Shape" fill="#FFFFFF"></path>
                    <path d="M94.8635097,33.6935933 C94.8133705,32.6908078 95.1142061,31.1364903 96.5682451,31.1364903 C97.9721448,31.1364903 98.1225627,32.6908078 98.1225627,33.6935933 L94.8635097,33.6935933 L94.8635097,33.6935933 L94.8635097,33.6935933 Z M103.537604,36.4011142 L103.537604,36.4011142 L103.537604,35.6490251 C103.537604,31.2869081 101.78273,28.1281337 96.718663,28.1281337 C91.454039,28.1281337 88.6963788,30.3342618 88.6963788,34.6963788 C88.6963788,39.1587744 91.5041783,41.7158774 96.718663,41.7158774 C98.9247911,41.7158774 100.880223,41.5153203 102.584958,40.9637883 L102.584958,37.6044568 C101.582173,38.1058496 100.027855,38.4066852 98.3231198,38.4066852 C96.4679666,38.4066852 94.9637883,38.0557103 94.8635097,36.4011142 L103.537604,36.4011142 L103.537604,36.4011142 Z" id="Shape" fill="#FFFFFF"></path>
                    <path d="M120.48468,41.4150418 L120.48468,22.7130919 L114.21727,22.7130919 L114.21727,30.0835655 L114.167131,30.0835655 C113.214485,28.6796657 111.910864,28.1281337 110.256267,28.1281337 C106.345404,28.1281337 104.740947,31.1866295 104.740947,34.6963788 C104.740947,38.4568245 106.295265,41.7158774 110.456825,41.7158774 C112.512535,41.7158774 113.766017,41.0139276 114.618384,39.0584958 L114.668524,39.0584958 L114.668524,41.4150418 L120.48468,41.4150418 L120.48468,41.4150418 L120.48468,41.4150418 Z M114.417827,34.8467967 L114.417827,34.8467967 C114.417827,36.0501393 114.21727,37.5041783 112.86351,37.5041783 C111.509749,37.5041783 111.259053,36.0501393 111.259053,34.6963788 C111.259053,33.3426184 111.45961,31.9888579 112.81337,31.9888579 C114.21727,32.0389972 114.417827,33.3426184 114.417827,34.8467967 L114.417827,34.8467967 Z" id="Shape" fill="#FFFFFF"></path>
                    <rect id="Rectangle-path" fill="#FFFFFF" x="19.454039" y="44.724234" width="140.891365" height="1.10306407"></rect>
                    <path d="M60.4178273,57.810585 L57.0584958,49.1364903 L58.3119777,49.1364903 L60.5682451,55.454039 C60.7688022,55.9554318 60.9192201,56.4568245 61.0194986,56.8579387 C61.1699164,56.4066852 61.3203343,55.9052925 61.4707521,55.454039 L63.8272981,49.1364903 L64.9805014,49.1364903 L61.5710306,57.810585 L60.4178273,57.810585 L60.4178273,57.810585 Z" id="Shape" fill="#FFFFFF"></path>
                    <path d="M69.091922,57.0083565 C68.6908078,57.3593315 68.3398329,57.5598886 67.9387187,57.7103064 C67.5877437,57.8607242 67.1866295,57.9108635 66.7855153,57.9108635 C66.0835655,57.9108635 65.5821727,57.7604457 65.1810585,57.4094708 C64.8300836,57.0584958 64.6295265,56.6573816 64.6295265,56.1058496 C64.6295265,55.8050139 64.6796657,55.5041783 64.8300836,55.2534819 C64.9805014,55.0027855 65.1309192,54.8022284 65.3816156,54.6518106 C65.632312,54.5013928 65.8830084,54.4011142 66.1337047,54.3008357 C66.3342618,54.2506964 66.6350975,54.2005571 67.086351,54.1504178 C67.9387187,54.0501393 68.5905292,53.9498607 68.9916435,53.7994429 L68.9916435,53.4986072 C68.9916435,53.0473538 68.8913649,52.7465181 68.6908078,52.5961003 C68.4401114,52.3454039 68.0389972,52.2451253 67.4874652,52.2451253 C66.9860724,52.2451253 66.6350975,52.3454039 66.3844011,52.4958217 C66.1337047,52.6963788 65.9832869,52.9972145 65.8328691,53.448468 L64.7799443,53.2980501 C64.8802228,52.8467967 65.0306407,52.4958217 65.2311978,52.1949861 C65.4317549,51.9442897 65.7827298,51.6935933 66.183844,51.5431755 C66.5849582,51.3927577 67.086351,51.3426184 67.5877437,51.3426184 C68.1392758,51.3426184 68.54039,51.3927577 68.8913649,51.5431755 C69.2423398,51.6935933 69.4930362,51.8440111 69.643454,52.0445682 C69.7938719,52.2451253 69.8941504,52.4958217 69.994429,52.7465181 C70.0445682,52.9470752 70.0445682,53.2479109 70.0445682,53.7493036 L70.0445682,55.1532033 C70.0445682,56.1559889 70.0445682,56.7576602 70.0947075,57.0083565 C70.1448468,57.2590529 70.2451253,57.5097493 70.3454039,57.7604457 L69.2423398,57.7604457 C69.1922006,57.5598886 69.091922,57.3091922 69.091922,57.0083565 L69.091922,57.0083565 L69.091922,57.0083565 Z M68.9916435,54.6518106 L68.9916435,54.6518106 C68.5905292,54.8022284 68.0389972,54.9526462 67.2367688,55.0529248 C66.7855153,55.1030641 66.4846797,55.2033426 66.2841226,55.2534819 C66.0835655,55.3537604 65.9832869,55.454039 65.8830084,55.6044568 C65.7827298,55.7548747 65.7325905,55.9052925 65.7325905,56.1058496 C65.7325905,56.4066852 65.8328691,56.6072423 66.0334262,56.8077994 C66.2339833,57.0083565 66.5849582,57.1086351 66.9860724,57.1086351 C67.3871866,57.1086351 67.7381616,57.0083565 68.0891365,56.8579387 C68.3899721,56.6573816 68.6406685,56.4568245 68.7910864,56.1058496 C68.8913649,55.8551532 68.9415042,55.5041783 68.9415042,55.0529248 L68.9415042,54.6518106 L68.9916435,54.6518106 Z" id="Shape" fill="#FFFFFF"></path>
                    <rect id="Rectangle-path" fill="#FFFFFF" x="71.6991643" y="49.1364903" width="1.05292479" height="8.67409471"></rect>
                    <path d="M78.718663,55.7548747 L79.821727,55.9052925 C79.6713092,56.5571031 79.3203343,57.0584958 78.8690808,57.4094708 C78.4178273,57.7604457 77.816156,57.9610028 77.0640669,57.9610028 C76.1615599,57.9610028 75.4094708,57.6601671 74.8579387,57.1086351 C74.3064067,56.5571031 74.0557103,55.7548747 74.0557103,54.7520891 C74.0557103,53.6991643 74.3064067,52.8969359 74.8579387,52.2952646 C75.4094708,51.6935933 76.1114206,51.4428969 76.9637883,51.4428969 C77.816156,51.4428969 78.4679666,51.7437326 79.0194986,52.2952646 C79.5710306,52.8467967 79.821727,53.6490251 79.821727,54.7019499 L79.821727,55.0027855 L75.1587744,55.0027855 C75.2089136,55.7047354 75.4094708,56.2061281 75.7604457,56.6072423 C76.1114206,56.9582173 76.5626741,57.1587744 77.0640669,57.1587744 C77.4651811,57.1587744 77.7660167,57.0584958 78.0668524,56.8579387 C78.3175487,56.5571031 78.5682451,56.2061281 78.718663,55.7548747 L78.718663,55.7548747 L78.718663,55.7548747 Z M75.2089136,54.0501393 L75.2089136,54.0501393 L78.718663,54.0501393 C78.6685237,53.4986072 78.5181058,53.1476323 78.3175487,52.8467967 C77.9665738,52.4456825 77.5153203,52.2451253 77.0139276,52.2451253 C76.5125348,52.2451253 76.1114206,52.3955432 75.7604457,52.7465181 C75.4094708,53.0473538 75.2590529,53.4986072 75.2089136,54.0501393 L75.2089136,54.0501393 Z" id="Shape" fill="#FFFFFF"></path>
                    <path d="M88.2451253,57.810585 L88.2451253,57.0083565 C87.8440111,57.6100279 87.2423398,57.9610028 86.4902507,57.9610028 C85.9888579,57.9610028 85.5376045,57.810585 85.086351,57.5598886 C84.6852368,57.2590529 84.3342618,56.908078 84.1337047,56.4066852 C83.8830084,55.9052925 83.7827298,55.3537604 83.7827298,54.7019499 C83.7827298,54.0501393 83.8830084,53.4986072 84.0835655,52.9972145 C84.2841226,52.4958217 84.5849582,52.0947075 85.0362117,51.8440111 C85.4373259,51.5933148 85.9387187,51.4428969 86.4401114,51.4428969 C86.8412256,51.4428969 87.1420613,51.5431755 87.4428969,51.6935933 C87.7437326,51.8440111 87.994429,52.0445682 88.1448468,52.2952646 L88.1448468,49.1364903 L89.1977716,49.1364903 L89.1977716,57.810585 L88.2451253,57.810585 L88.2451253,57.810585 L88.2451253,57.810585 Z M84.8857939,54.6518106 L84.8857939,54.6518106 C84.8857939,55.454039 85.0362117,56.0557103 85.3871866,56.4568245 C85.7381616,56.8579387 86.1392758,57.0584958 86.5905292,57.0584958 C87.0417827,57.0584958 87.4428969,56.8579387 87.7938719,56.5069638 C88.0947075,56.1058496 88.2952646,55.5543175 88.2952646,54.7520891 C88.2952646,53.8997214 88.1448468,53.2479109 87.7938719,52.8467967 C87.4428969,52.4456825 87.0417827,52.2451253 86.5905292,52.2451253 C86.1392758,52.2451253 85.7381616,52.4456825 85.3871866,52.8467967 C85.0362117,53.2479109 84.8857939,53.8495822 84.8857939,54.6518106 L84.8857939,54.6518106 Z" id="Shape" fill="#FFFFFF"></path>
                    <path d="M90.5013928,54.6518106 C90.5013928,53.4986072 90.8022284,52.6462396 91.454039,52.0445682 C92.005571,51.5933148 92.6573816,51.3426184 93.4094708,51.3426184 C94.2618384,51.3426184 94.9637883,51.643454 95.5153203,52.1949861 C96.0668524,52.7465181 96.3175487,53.5487465 96.3175487,54.551532 C96.3175487,55.3537604 96.2172702,56.005571 95.9665738,56.4568245 C95.7158774,56.908078 95.3649025,57.2590529 94.913649,57.5598886 C94.4623955,57.810585 93.9610028,57.9610028 93.4094708,57.9610028 C92.5069638,57.9610028 91.8050139,57.6601671 91.2534819,57.1086351 C90.8022284,56.5571031 90.5013928,55.7047354 90.5013928,54.6518106 L90.5013928,54.6518106 L90.5013928,54.6518106 Z M91.6044568,54.6518106 L91.6044568,54.6518106 C91.6044568,55.454039 91.7548747,56.0557103 92.1058496,56.4568245 C92.4568245,56.8579387 92.908078,57.0584958 93.4094708,57.0584958 C93.9610028,57.0584958 94.362117,56.8579387 94.7130919,56.4568245 C95.0640669,56.0557103 95.264624,55.454039 95.264624,54.6016713 C95.264624,53.8495822 95.0640669,53.2479109 94.7130919,52.8467967 C94.362117,52.4456825 93.9108635,52.2451253 93.4094708,52.2451253 C92.8579387,52.2451253 92.4568245,52.4456825 92.1058496,52.8467967 C91.8050139,53.2479109 91.6044568,53.8495822 91.6044568,54.6518106 L91.6044568,54.6518106 Z" id="Shape" fill="#FFFFFF"></path>
                    <path d="M99.5264624,57.810585 L102.835655,49.1364903 L104.089136,49.1364903 L107.649025,57.810585 L106.345404,57.810585 L105.342618,55.2033426 L101.732591,55.2033426 L100.779944,57.810585 L99.5264624,57.810585 L99.5264624,57.810585 L99.5264624,57.810585 Z M102.033426,54.2506964 L102.033426,54.2506964 L104.991643,54.2506964 L104.089136,51.8440111 C103.788301,51.091922 103.587744,50.54039 103.487465,50.0389972 C103.387187,50.5905292 103.236769,51.1420613 103.036212,51.6935933 L102.033426,54.2506964 L102.033426,54.2506964 Z" id="Shape" fill="#FFFFFF"></path>
                    <path d="M112.512535,55.5041783 L113.56546,55.6545961 C113.465181,56.356546 113.164345,56.9582173 112.662953,57.3593315 C112.211699,57.7604457 111.610028,57.9610028 110.908078,57.9610028 C110.05571,57.9610028 109.35376,57.6601671 108.852368,57.1086351 C108.350975,56.5571031 108.050139,55.7548747 108.050139,54.7019499 C108.050139,54 108.150418,53.448468 108.401114,52.8969359 C108.601671,52.3955432 108.952646,51.994429 109.4039,51.7437326 C109.855153,51.4930362 110.356546,51.3426184 110.908078,51.3426184 C111.610028,51.3426184 112.16156,51.4930362 112.562674,51.8440111 C113.013928,52.1949861 113.264624,52.6963788 113.415042,53.2980501 L112.362117,53.448468 C112.261838,53.0473538 112.111421,52.6963788 111.860724,52.4958217 C111.610028,52.2952646 111.309192,52.1949861 110.958217,52.1949861 C110.406685,52.1949861 110.005571,52.3955432 109.654596,52.7966574 C109.303621,53.1977716 109.153203,53.7994429 109.153203,54.6016713 C109.153203,55.454039 109.303621,56.0557103 109.654596,56.4568245 C109.955432,56.8579387 110.406685,57.0083565 110.908078,57.0083565 C111.309192,57.0083565 111.660167,56.8579387 111.961003,56.6072423 C112.261838,56.4066852 112.462396,56.0557103 112.512535,55.5041783 L112.512535,55.5041783 L112.512535,55.5041783 Z M110.05571,58.6128134 C110.356546,58.6128134 110.557103,58.6629526 110.657382,58.6629526 C110.75766,58.7130919 110.857939,58.7632312 110.908078,58.8133705 C110.958217,58.8635097 110.958217,58.913649 110.958217,59.0139276 C110.958217,59.1142061 110.908078,59.2144847 110.807799,59.3147632 C110.657382,59.4150418 110.406685,59.4651811 110.005571,59.4651811 L109.454039,59.4651811 L109.4039,60.1671309 C109.654596,60.2172702 109.955432,60.2172702 110.256267,60.2172702 C110.807799,60.2172702 111.259053,60.1169916 111.559889,59.8662953 C111.860724,59.6155989 111.961003,59.3649025 111.961003,59.0640669 C111.961003,58.8635097 111.860724,58.6629526 111.710306,58.5125348 C111.559889,58.362117 111.309192,58.2618384 110.958217,58.2116992 L111.158774,57.5598886 L110.356546,57.5598886 L110.05571,58.6128134 L110.05571,58.6128134 L110.05571,58.6128134 Z" id="Shape" fill="#FFFFFF"></path>
                    <path d="M114.066852,54.6518106 C114.066852,53.4986072 114.367688,52.6462396 115.019499,52.0445682 C115.571031,51.5933148 116.222841,51.3426184 116.97493,51.3426184 C117.827298,51.3426184 118.529248,51.643454 119.08078,52.1949861 C119.632312,52.7465181 119.883008,53.5487465 119.883008,54.551532 C119.883008,55.3537604 119.78273,56.005571 119.532033,56.4568245 C119.281337,56.908078 118.930362,57.2590529 118.479109,57.5598886 C118.027855,57.810585 117.526462,57.9610028 116.97493,57.9610028 C116.072423,57.9610028 115.370474,57.6601671 114.818942,57.1086351 C114.367688,56.5571031 114.066852,55.7047354 114.066852,54.6518106 L114.066852,54.6518106 L114.066852,54.6518106 Z M115.169916,54.6518106 L115.169916,54.6518106 C115.169916,55.454039 115.320334,56.0557103 115.671309,56.4568245 C116.022284,56.8579387 116.473538,57.0584958 116.97493,57.0584958 C117.526462,57.0584958 117.927577,56.8579387 118.278552,56.4568245 C118.629526,56.0557103 118.830084,55.454039 118.830084,54.6016713 C118.830084,53.8495822 118.629526,53.2479109 118.278552,52.8467967 C117.927577,52.4456825 117.476323,52.2451253 116.97493,52.2451253 C116.423398,52.2451253 116.022284,52.4456825 115.671309,52.8467967 C115.370474,53.2479109 115.169916,53.8495822 115.169916,54.6518106 L115.169916,54.6518106 Z" id="Shape" fill="#FFFFFF"></path>
                </g>
            </g>
        </g>
    </g>
</svg>