<?xml version="1.0" encoding="UTF-8"?><!DOCTYPE svg PUBLIC "-//W3C//DTD SVG 1.1//EN" "http://www.w3.org/Graphics/SVG/1.1/DTD/svg11.dtd"><svg xmlns="http://www.w3.org/2000/svg" xmlns:xlink="http://www.w3.org/1999/xlink" version="1.1" id="Layer_1" x="0px" y="0px" width="48px" height="48px" viewBox="0 0 48 48" xml:space="preserve" fill="#aeb2b7"><path d="M46.599 46.599a4.498 4.498 0 0 1-6.363 0l-7.941-7.941C29.028 40.749 25.167 42 21 42 9.402 42 0 32.598 0 21S9.402 0 21 0s21 9.402 21 21c0 4.167-1.251 8.028-3.342 11.295l7.941 7.941a4.498 4.498 0 0 1 0 6.363zM21 6C12.717 6 6 12.714 6 21s6.717 15 15 15c8.286 0 15-6.714 15-15S29.286 6 21 6z"/><metadata><rdf:RDF xmlns:rdf="http://www.w3.org/1999/02/22-rdf-syntax-ns#" xmlns:rdfs="http://www.w3.org/2000/01/rdf-schema#" xmlns:dc="http://purl.org/dc/elements/1.1/"><rdf:Description about="https://iconscout.com/legal#licenses" dc:title="search" dc:description="search" dc:publisher="Iconscout" dc:date="2017-09-24" dc:format="image/svg+xml" dc:language="en"><dc:creator><rdf:Bag><rdf:li>Adam</rdf:li></rdf:Bag></dc:creator></rdf:Description></rdf:RDF></metadata></svg>